<mxfile host="app.diagrams.net" agent="Mozilla/5.0 (Windows NT 10.0; Win64; x64) AppleWebKit/537.36 (KHTML, like Gecko) Chrome/129.0.0.0 Safari/537.36" version="24.7.16">
  <diagram name="Page-1" id="HIyfg2uQdeUTpyB_RFe1">
    <mxGraphModel dx="1195" dy="630" grid="0" gridSize="10" guides="1" tooltips="1" connect="1" arrows="1" fold="1" page="1" pageScale="1" pageWidth="1169" pageHeight="827" math="0" shadow="0">
      <root>
        <mxCell id="0" />
        <mxCell id="1" parent="0" />
        <mxCell id="WU0I1i-L_rbRIQoUhguy-42" value="" style="rounded=0;whiteSpace=wrap;html=1;" vertex="1" parent="1">
          <mxGeometry x="185" y="85" width="897" height="701" as="geometry" />
        </mxCell>
        <mxCell id="WU0I1i-L_rbRIQoUhguy-4" value="" style="rounded=1;whiteSpace=wrap;html=1;fillColor=#d5e8d4;strokeColor=#82b366;" vertex="1" parent="1">
          <mxGeometry x="275" y="159" width="720" height="538" as="geometry" />
        </mxCell>
        <mxCell id="WU0I1i-L_rbRIQoUhguy-40" style="edgeStyle=orthogonalEdgeStyle;rounded=0;orthogonalLoop=1;jettySize=auto;html=1;" edge="1" parent="1" source="WU0I1i-L_rbRIQoUhguy-15" target="WU0I1i-L_rbRIQoUhguy-37">
          <mxGeometry relative="1" as="geometry" />
        </mxCell>
        <mxCell id="WU0I1i-L_rbRIQoUhguy-15" value="" style="rounded=0;whiteSpace=wrap;html=1;fillColor=#dae8fc;strokeColor=#6c8ebf;dashed=1;dashPattern=8 8;" vertex="1" parent="1">
          <mxGeometry x="715" y="199" width="240" height="385" as="geometry" />
        </mxCell>
        <mxCell id="WU0I1i-L_rbRIQoUhguy-38" style="edgeStyle=orthogonalEdgeStyle;rounded=0;orthogonalLoop=1;jettySize=auto;html=1;" edge="1" parent="1" source="WU0I1i-L_rbRIQoUhguy-10" target="WU0I1i-L_rbRIQoUhguy-36">
          <mxGeometry relative="1" as="geometry" />
        </mxCell>
        <mxCell id="WU0I1i-L_rbRIQoUhguy-10" value="" style="rounded=0;whiteSpace=wrap;html=1;fillColor=#dae8fc;strokeColor=#6c8ebf;dashed=1;dashPattern=8 8;" vertex="1" parent="1">
          <mxGeometry x="325" y="199" width="240" height="381" as="geometry" />
        </mxCell>
        <mxCell id="WU0I1i-L_rbRIQoUhguy-3" value="" style="group" vertex="1" connectable="0" parent="1">
          <mxGeometry x="596" y="119" width="78" height="108" as="geometry" />
        </mxCell>
        <mxCell id="WU0I1i-L_rbRIQoUhguy-1" value="VPC" style="sketch=0;points=[[0,0,0],[0.25,0,0],[0.5,0,0],[0.75,0,0],[1,0,0],[0,1,0],[0.25,1,0],[0.5,1,0],[0.75,1,0],[1,1,0],[0,0.25,0],[0,0.5,0],[0,0.75,0],[1,0.25,0],[1,0.5,0],[1,0.75,0]];outlineConnect=0;fontColor=#232F3E;fillColor=#8C4FFF;strokeColor=#ffffff;dashed=0;verticalLabelPosition=bottom;verticalAlign=top;align=center;html=1;fontSize=12;fontStyle=0;aspect=fixed;shape=mxgraph.aws4.resourceIcon;resIcon=mxgraph.aws4.vpc;" vertex="1" parent="WU0I1i-L_rbRIQoUhguy-3">
          <mxGeometry width="78" height="78" as="geometry" />
        </mxCell>
        <mxCell id="WU0I1i-L_rbRIQoUhguy-18" value="public-subnet-a" style="whiteSpace=wrap;html=1;fillColor=#1ba1e2;fontColor=#ffffff;strokeColor=#006EAF;" vertex="1" parent="1">
          <mxGeometry x="285" y="229" width="120" height="20" as="geometry" />
        </mxCell>
        <mxCell id="WU0I1i-L_rbRIQoUhguy-19" value="public-subnet-b" style="whiteSpace=wrap;html=1;fillColor=#1ba1e2;fontColor=#ffffff;strokeColor=#006EAF;" vertex="1" parent="1">
          <mxGeometry x="285" y="259" width="120" height="20" as="geometry" />
        </mxCell>
        <mxCell id="WU0I1i-L_rbRIQoUhguy-20" value="private-subnet-a" style="whiteSpace=wrap;html=1;fillColor=#1ba1e2;fontColor=#ffffff;strokeColor=#006EAF;" vertex="1" parent="1">
          <mxGeometry x="674" y="229" width="120" height="20" as="geometry" />
        </mxCell>
        <mxCell id="WU0I1i-L_rbRIQoUhguy-21" value="private-subnet-b" style="whiteSpace=wrap;html=1;fillColor=#1ba1e2;fontColor=#ffffff;strokeColor=#006EAF;" vertex="1" parent="1">
          <mxGeometry x="674" y="259" width="120" height="20" as="geometry" />
        </mxCell>
        <mxCell id="WU0I1i-L_rbRIQoUhguy-23" value="" style="rounded=1;whiteSpace=wrap;html=1;fillColor=#fff2cc;strokeColor=#d6b656;" vertex="1" parent="1">
          <mxGeometry x="366" y="289" width="544" height="249" as="geometry" />
        </mxCell>
        <mxCell id="WU0I1i-L_rbRIQoUhguy-26" value="" style="group" vertex="1" connectable="0" parent="1">
          <mxGeometry x="415" y="274" width="50" height="71" as="geometry" />
        </mxCell>
        <mxCell id="WU0I1i-L_rbRIQoUhguy-24" value="EKS" style="sketch=0;points=[[0,0,0],[0.25,0,0],[0.5,0,0],[0.75,0,0],[1,0,0],[0,1,0],[0.25,1,0],[0.5,1,0],[0.75,1,0],[1,1,0],[0,0.25,0],[0,0.5,0],[0,0.75,0],[1,0.25,0],[1,0.5,0],[1,0.75,0]];outlineConnect=0;fontColor=#232F3E;fillColor=#ED7100;strokeColor=#ffffff;dashed=0;verticalLabelPosition=bottom;verticalAlign=top;align=center;html=1;fontSize=12;fontStyle=0;aspect=fixed;shape=mxgraph.aws4.resourceIcon;resIcon=mxgraph.aws4.eks;" vertex="1" parent="WU0I1i-L_rbRIQoUhguy-26">
          <mxGeometry width="50" height="50" as="geometry" />
        </mxCell>
        <mxCell id="WU0I1i-L_rbRIQoUhguy-27" value="" style="group" vertex="1" connectable="0" parent="1">
          <mxGeometry x="410" y="679" width="70" height="85" as="geometry" />
        </mxCell>
        <mxCell id="WU0I1i-L_rbRIQoUhguy-6" value="Internet&lt;br&gt;Gateway" style="sketch=0;outlineConnect=0;fontColor=#232F3E;gradientColor=none;fillColor=#8C4FFF;strokeColor=none;dashed=0;verticalLabelPosition=bottom;verticalAlign=top;align=center;html=1;fontSize=12;fontStyle=0;aspect=fixed;pointerEvents=1;shape=mxgraph.aws4.internet_gateway;" vertex="1" parent="WU0I1i-L_rbRIQoUhguy-27">
          <mxGeometry x="10" width="50" height="50" as="geometry" />
        </mxCell>
        <mxCell id="WU0I1i-L_rbRIQoUhguy-28" value="" style="group" vertex="1" connectable="0" parent="1">
          <mxGeometry x="785" y="686" width="100" height="75" as="geometry" />
        </mxCell>
        <mxCell id="WU0I1i-L_rbRIQoUhguy-5" value="NAT Gateway" style="sketch=0;outlineConnect=0;fontColor=#232F3E;gradientColor=none;fillColor=#8C4FFF;strokeColor=none;dashed=0;verticalLabelPosition=bottom;verticalAlign=top;align=center;html=1;fontSize=12;fontStyle=0;aspect=fixed;pointerEvents=1;shape=mxgraph.aws4.nat_gateway;" vertex="1" parent="WU0I1i-L_rbRIQoUhguy-28">
          <mxGeometry x="25" width="50" height="50" as="geometry" />
        </mxCell>
        <mxCell id="WU0I1i-L_rbRIQoUhguy-29" value="" style="rounded=1;whiteSpace=wrap;html=1;fillColor=#ffe6cc;strokeColor=#d79b00;" vertex="1" parent="1">
          <mxGeometry x="387" y="346" width="503" height="143" as="geometry" />
        </mxCell>
        <mxCell id="WU0I1i-L_rbRIQoUhguy-30" value="Dotcluster" style="text;html=1;align=center;verticalAlign=middle;resizable=0;points=[];autosize=1;strokeColor=none;fillColor=none;" vertex="1" parent="1">
          <mxGeometry x="599" y="294" width="72" height="26" as="geometry" />
        </mxCell>
        <mxCell id="WU0I1i-L_rbRIQoUhguy-31" value="Node Group: Dotcluster-nodes" style="text;html=1;align=center;verticalAlign=middle;resizable=0;points=[];autosize=1;strokeColor=none;fillColor=none;" vertex="1" parent="1">
          <mxGeometry x="415" y="354" width="181" height="26" as="geometry" />
        </mxCell>
        <mxCell id="WU0I1i-L_rbRIQoUhguy-32" value="EC2" style="sketch=0;points=[[0,0,0],[0.25,0,0],[0.5,0,0],[0.75,0,0],[1,0,0],[0,1,0],[0.25,1,0],[0.5,1,0],[0.75,1,0],[1,1,0],[0,0.25,0],[0,0.5,0],[0,0.75,0],[1,0.25,0],[1,0.5,0],[1,0.75,0]];outlineConnect=0;fontColor=#232F3E;fillColor=#ED7100;strokeColor=#ffffff;dashed=0;verticalLabelPosition=bottom;verticalAlign=top;align=center;html=1;fontSize=12;fontStyle=0;aspect=fixed;shape=mxgraph.aws4.resourceIcon;resIcon=mxgraph.aws4.ec2;" vertex="1" parent="1">
          <mxGeometry x="530" y="394" width="46" height="46" as="geometry" />
        </mxCell>
        <mxCell id="WU0I1i-L_rbRIQoUhguy-34" value="EC2" style="sketch=0;points=[[0,0,0],[0.25,0,0],[0.5,0,0],[0.75,0,0],[1,0,0],[0,1,0],[0.25,1,0],[0.5,1,0],[0.75,1,0],[1,1,0],[0,0.25,0],[0,0.5,0],[0,0.75,0],[1,0.25,0],[1,0.5,0],[1,0.75,0]];outlineConnect=0;fontColor=#232F3E;fillColor=#ED7100;strokeColor=#ffffff;dashed=0;verticalLabelPosition=bottom;verticalAlign=top;align=center;html=1;fontSize=12;fontStyle=0;aspect=fixed;shape=mxgraph.aws4.resourceIcon;resIcon=mxgraph.aws4.ec2;" vertex="1" parent="1">
          <mxGeometry x="610" y="394" width="46" height="46" as="geometry" />
        </mxCell>
        <mxCell id="WU0I1i-L_rbRIQoUhguy-35" value="EC2" style="sketch=0;points=[[0,0,0],[0.25,0,0],[0.5,0,0],[0.75,0,0],[1,0,0],[0,1,0],[0.25,1,0],[0.5,1,0],[0.75,1,0],[1,1,0],[0,0.25,0],[0,0.5,0],[0,0.75,0],[1,0.25,0],[1,0.5,0],[1,0.75,0]];outlineConnect=0;fontColor=#232F3E;fillColor=#ED7100;strokeColor=#ffffff;dashed=0;verticalLabelPosition=bottom;verticalAlign=top;align=center;html=1;fontSize=12;fontStyle=0;aspect=fixed;shape=mxgraph.aws4.resourceIcon;resIcon=mxgraph.aws4.ec2;" vertex="1" parent="1">
          <mxGeometry x="685" y="394" width="46" height="46" as="geometry" />
        </mxCell>
        <mxCell id="WU0I1i-L_rbRIQoUhguy-39" style="edgeStyle=orthogonalEdgeStyle;rounded=0;orthogonalLoop=1;jettySize=auto;html=1;" edge="1" parent="1" source="WU0I1i-L_rbRIQoUhguy-36" target="WU0I1i-L_rbRIQoUhguy-6">
          <mxGeometry relative="1" as="geometry" />
        </mxCell>
        <mxCell id="WU0I1i-L_rbRIQoUhguy-36" value="Route table" style="sketch=0;outlineConnect=0;fontColor=#232F3E;gradientColor=none;fillColor=#8C4FFF;strokeColor=none;dashed=0;verticalLabelPosition=bottom;verticalAlign=top;align=center;html=1;fontSize=12;fontStyle=0;aspect=fixed;pointerEvents=1;shape=mxgraph.aws4.route_table;" vertex="1" parent="1">
          <mxGeometry x="425.5" y="603" width="39" height="38" as="geometry" />
        </mxCell>
        <mxCell id="WU0I1i-L_rbRIQoUhguy-41" style="edgeStyle=orthogonalEdgeStyle;rounded=0;orthogonalLoop=1;jettySize=auto;html=1;" edge="1" parent="1" source="WU0I1i-L_rbRIQoUhguy-37" target="WU0I1i-L_rbRIQoUhguy-5">
          <mxGeometry relative="1" as="geometry" />
        </mxCell>
        <mxCell id="WU0I1i-L_rbRIQoUhguy-37" value="Route table" style="sketch=0;outlineConnect=0;fontColor=#232F3E;gradientColor=none;fillColor=#8C4FFF;strokeColor=none;dashed=0;verticalLabelPosition=bottom;verticalAlign=top;align=center;html=1;fontSize=12;fontStyle=0;aspect=fixed;pointerEvents=1;shape=mxgraph.aws4.route_table;" vertex="1" parent="1">
          <mxGeometry x="815.5" y="603" width="39" height="38" as="geometry" />
        </mxCell>
      </root>
    </mxGraphModel>
  </diagram>
</mxfile>
